<?xml version="1.0" encoding="utf-8"?><!-- Uploaded to: SVG Repo, www.svgrepo.com, Generator: SVG Repo Mixer Tools -->
<svg fill="#000000" width="800px" height="800px" viewBox="-6 0 46 46" xmlns="http://www.w3.org/2000/svg">
  <path id="_11.Notebook" data-name="11.Notebook" d="M41,46h0a1,1,0,0,1-1,1H12a5,5,0,0,1-5-5V6a5,5,0,0,1,5-5H38a1,1,0,0,1,1,1h0V9h1a1,1,0,0,1,1,1h0ZM9,42H9a3,3,0,0,0,3,3h3V11H12A4.962,4.962,0,0,1,9,9.978ZM37,9V3H12a3,3,0,0,0,0,6Zm2,2H17V45H39ZM12,7a1,1,0,0,1,0-2H34a1,1,0,0,1,0,2Z" transform="translate(-7 -1)" fill-rule="evenodd"/>
</svg>